 <svg  version="1.0" xmlns="http://www.w3.org/2000/svg"  width="450.000000pt" height="607.000000pt" viewBox="0 0 450.000000 607.000000"  preserveAspectRatio="xMidYMid meet">  <g transform="translate(0.000000,607.000000) scale(0.100000,-0.100000)" fill="#cfc48e" stroke="none"> <path d="M3440 5814 c-8 -1 -49 -8 -90 -14 -98 -16 -154 -33 -275 -85 -109 -47 -268 -132 -273 -146 -2 -5 -9 -9 -15 -9 -10 0 -203 -125 -217 -141 -3 -3 -23 -18 -45 -34 -48 -35 -204 -163 -225 -185 -8 -8 -32 -28 -52 -43 -39 -29 -362 -347 -444 -437 -49 -54 -185 -212 -275 -320 -26 -30 -103 -132 -173 -225 -69 -94 -129 -174 -134 -180 -10 -14 -190 -287 -234 -355 -169 -266 -391 -697 -493 -960 -51 -130 -121 -345 -151 -462 -70 -279 -87 -551 -44 -724 63 -253 226 -375 480 -361 153 8 293 54 535 174 120 59 121 60 113 69 -4 3 -31 -6 -61 -20 -137 -63 -310 -80 -417 -41 -71 26 -161 113 -194 187 -43 98 -51 153 -50 338 0 150 4 194 28 309 60 294 172 604 346 955 78 157 227 426 298 536 175 272 401 586 523 725 14 17 63 73 109 125 220 253 531 542 729 675 24 17 60 41 80 54 242 165 519 256 672 222 58 -13 111 -31 119 -41 3 -3 17 -13 32 -23 28 -18 104 -112 101 -125 -1 -4 3 -12 7 -17 16 -19 39 -99 51 -175 11 -74 6 -283 -9 -360 -6 -29 -28 -55 -117 -135 -60 -55 -130 -119 -155 -142 -53 -50 -96 -88 -181 -163 -34 -30 -72 -64 -83 -75 -12 -11 -66 -60 -121 -110 -54 -49 -111 -101 -125 -115 -14 -14 -61 -56 -104 -95 -43 -38 -91 -81 -106 -95 -113 -103 -230 -209 -371 -336 -63 -56 -87 -84 -71 -84 8 0 46 33 137 118 33 30 75 64 92 75 18 10 31 23 28 27 -3 5 3 14 14 19 10 6 49 40 86 76 38 36 70 63 73 60 3 -3 13 7 23 21 9 14 28 34 42 43 14 9 35 29 47 44 12 15 26 25 31 22 5 -4 9 0 9 7 0 7 14 24 32 38 18 14 54 47 80 73 26 27 52 46 58 42 5 -3 10 1 10 9 0 8 9 21 21 30 11 8 53 45 92 83 40 38 87 79 105 92 17 12 32 29 32 36 0 9 6 12 15 9 9 -4 15 0 15 10 0 9 6 16 14 16 7 0 21 12 31 26 9 14 19 23 22 20 3 -3 24 14 48 37 77 76 250 236 273 253 16 11 21 22 17 35 -5 15 5 32 40 67 54 53 61 69 75 167 48 330 35 514 -48 684 -54 112 -182 203 -301 216 -31 3 -69 7 -86 9 -16 1 -37 2 -45 0z m144 -25 c10 0 28 -7 40 -15 11 -7 31 -14 44 -14 13 0 20 -4 17 -10 -3 -5 3 -10 14 -10 12 0 21 -4 21 -10 0 -5 4 -10 10 -10 15 0 108 -98 126 -132 9 -17 27 -67 42 -112 22 -72 25 -99 27 -245 1 -93 -2 -156 -7 -145 -5 12 -7 2 -4 -28 2 -26 -3 -73 -10 -105 -7 -32 -13 -59 -13 -61 0 -48 -18 -100 -41 -119 l-27 -22 3 22 c1 12 3 22 4 22 0 0 2 41 3 90 4 121 -22 273 -60 355 -49 105 -143 190 -228 206 -19 3 -37 9 -40 13 -2 4 -46 6 -97 4 -123 -4 -246 -34 -340 -84 -10 -5 -24 -9 -32 -9 -8 0 -21 -6 -28 -13 -15 -16 -49 -31 -62 -28 -4 1 -14 -6 -21 -16 -8 -10 -17 -18 -22 -19 -17 -1 -63 -27 -63 -36 0 -4 -7 -8 -15 -8 -8 0 -15 -5 -15 -11 0 -6 -9 -9 -20 -6 -11 3 -18 1 -15 -3 3 -5 -5 -14 -17 -21 -13 -7 -25 -15 -28 -18 -3 -4 -21 -18 -40 -31 -19 -13 -42 -32 -50 -41 -8 -9 -38 -33 -65 -54 -28 -21 -56 -43 -64 -49 -11 -8 -13 -8 -8 1 4 6 3 23 -3 38 -7 20 -7 31 1 41 6 8 8 14 3 14 -5 0 -1 5 8 11 12 7 24 6 39 -1 11 -7 23 -9 26 -7 3 3 -9 13 -26 21 -30 16 -32 15 -61 -10 -27 -25 -28 -28 -15 -48 16 -22 20 -46 7 -46 -15 0 -96 190 -85 201 6 6 28 0 64 -18 30 -15 56 -30 59 -33 3 -3 22 -14 43 -25 39 -21 45 -33 25 -53 -9 -9 -9 -12 -1 -12 36 0 25 65 -12 74 -14 4 -25 11 -25 16 0 10 -110 65 -143 71 -13 3 -3 15 38 47 30 23 59 42 65 42 5 0 14 9 20 20 6 11 17 20 24 20 8 0 17 7 20 16 3 8 10 13 14 10 4 -2 25 11 45 29 21 19 59 47 85 62 26 15 53 33 60 40 7 7 18 13 24 13 6 0 19 6 27 14 34 29 213 118 227 112 8 -3 13 -2 10 3 -8 12 142 76 199 85 11 2 45 8 75 15 83 17 100 18 165 14 33 -2 69 -3 79 -4z m-1209 -579 c-4 -11 -2 -20 4 -20 6 0 16 -19 23 -42 6 -24 15 -45 20 -48 4 -3 15 -25 26 -48 10 -23 22 -39 25 -35 4 3 7 -1 7 -10 0 -24 -20 -31 -38 -14 -10 11 -12 21 -6 29 5 8 2 6 -7 -4 -16 -16 -17 -16 -33 1 -9 10 -16 25 -16 34 0 9 -5 19 -10 22 -6 3 -7 18 -4 32 5 18 3 24 -5 19 -7 -5 -11 2 -11 18 0 14 -7 29 -16 34 -14 8 -12 12 11 30 34 27 38 27 30 2z m-35 -68 c0 -47 24 -107 58 -146 27 -30 32 -33 27 -15 -7 22 -7 22 9 6 17 -17 14 -37 -5 -37 -5 0 -28 17 -52 39 -29 26 -58 42 -95 51 -50 12 -71 25 -58 37 3 3 31 -3 61 -14 l56 -21 -7 37 c-4 20 -12 50 -19 66 -12 29 -12 28 -7 -18 l5 -48 -29 7 c-16 5 -37 8 -46 8 -27 0 -22 11 23 49 46 40 79 40 79 -1z m-128 -86 c10 -7 14 -17 10 -21 -4 -5 1 -5 11 -2 9 4 17 2 17 -3 0 -6 12 -10 28 -10 33 0 102 -45 102 -66 0 -8 5 -12 10 -9 17 10 11 -14 -7 -33 -10 -9 -26 -29 -35 -42 l-18 -25 10 27 c5 15 6 27 2 26 -13 -4 -62 45 -55 55 3 6 1 7 -5 3 -10 -6 -14 0 -14 24 0 3 -19 19 -43 36 -38 28 -43 30 -61 16 -19 -14 -19 -15 0 -8 16 5 34 -9 87 -66 64 -69 82 -98 59 -98 -5 0 -10 3 -10 8 0 12 -127 142 -139 142 -15 0 -14 -17 2 -24 6 -2 -2 -4 -18 -3 -17 0 -36 -2 -43 -7 -7 -4 -12 -3 -12 1 0 15 23 33 43 33 10 0 16 4 12 9 -5 9 32 51 44 51 3 0 14 -7 23 -14z m3 -135 c-1 -32 3 -43 16 -36 5 4 4 15 -2 28 l-12 22 25 -23 c31 -28 33 -55 4 -46 -37 11 -50 21 -51 40 -1 11 -5 29 -9 42 -7 21 -6 22 11 12 11 -8 18 -23 18 -39z m-45 24 c7 -9 10 -27 7 -43 -5 -26 -2 -29 41 -45 42 -16 48 -16 58 -2 11 14 12 14 18 0 3 -10 11 -13 18 -9 10 5 10 4 2 -5 -19 -21 -61 -21 -109 -1 -44 19 -47 19 -70 2 l-24 -17 36 -37 c31 -31 34 -40 23 -53 -8 -9 -8 -15 -2 -15 6 0 14 5 17 10 3 6 11 10 18 10 6 0 2 -10 -10 -21 -23 -23 -47 -17 -39 9 3 11 -19 43 -64 92 l-69 74 37 33 c41 36 90 44 112 18z m-163 -64 c-3 -14 -1 -18 9 -14 10 4 13 -2 12 -18 -2 -18 2 -25 21 -27 13 -2 26 -12 28 -23 3 -10 9 -16 14 -13 5 3 6 -2 3 -11 -5 -11 -2 -14 10 -9 11 4 16 1 16 -10 0 -9 8 -16 17 -16 13 0 14 -3 6 -11 -8 -8 -17 -6 -34 10 -13 11 -29 21 -37 21 -8 0 -12 6 -9 13 4 10 -2 13 -20 9 -18 -3 -24 -1 -19 7 7 10 -5 15 -30 12 -6 -1 -17 5 -23 13 -7 8 -20 12 -29 9 -9 -4 1 12 22 35 44 47 51 51 43 23z m43 -41 c0 -5 -4 -10 -10 -10 -5 0 -10 5 -10 10 0 6 5 10 10 10 6 0 10 -4 10 -10z m143 -15 c19 -8 37 -11 41 -8 3 4 6 2 6 -3 0 -6 -5 -15 -12 -22 -8 -8 -8 -12 -1 -12 6 0 16 7 23 15 7 8 17 15 23 15 7 0 -1 -12 -16 -27 -28 -28 -28 -28 -44 -8 -15 20 -15 20 -8 -2 9 -32 2 -29 -31 14 -23 31 -25 35 -8 30 19 -7 19 -7 0 8 -25 19 -18 19 27 0z m-159 -67 c109 -62 101 -56 93 -65 -4 -4 -23 1 -43 10 -35 17 -36 17 -64 -6 l-27 -24 17 -36 c13 -26 15 -39 7 -44 -6 -3 -12 -2 -14 3 -2 5 -23 53 -47 106 -40 88 -42 102 -17 107 2 1 45 -22 95 -51z m-124 11 c0 -6 -4 -7 -10 -4 -5 3 -10 11 -10 16 0 6 5 7 10 4 6 -3 10 -11 10 -16z m20 -47 c0 -13 7 -31 16 -39 10 -10 13 -25 10 -39 -4 -16 -2 -24 6 -24 7 0 18 -10 23 -22 6 -12 18 -23 28 -24 20 -3 43 31 27 41 -6 4 -7 11 -4 17 4 6 0 14 -7 19 -16 10 -3 39 21 47 7 3 10 0 6 -7 -5 -7 -1 -9 9 -5 9 4 25 -2 36 -12 17 -16 22 -16 29 -4 6 8 10 22 10 30 0 11 2 12 13 1 10 -10 4 -20 -29 -51 -23 -21 -39 -42 -35 -46 3 -4 -2 -4 -11 -1 -10 3 -17 2 -15 -3 4 -17 -75 -101 -90 -96 -11 4 -13 2 -10 -9 6 -15 -8 -31 -16 -18 -2 5 -2 2 0 -6 2 -7 -8 -22 -22 -33 -15 -11 -24 -23 -21 -26 3 -3 -9 -22 -28 -42 -18 -21 -38 -46 -45 -56 -9 -17 -12 -17 -22 -4 -9 13 -10 12 -5 -4 4 -10 1 -24 -5 -32 -12 -15 -39 -8 -39 11 0 7 -7 18 -15 25 -8 7 -12 16 -9 21 3 5 -3 6 -12 2 -14 -5 -16 -3 -11 11 4 10 3 15 -3 11 -16 -10 -12 5 9 31 l19 24 19 -23 c10 -13 24 -22 32 -19 8 3 11 0 7 -7 -5 -7 -1 -9 10 -4 13 5 9 12 -22 39 -22 18 -43 33 -49 33 -5 0 -23 -18 -39 -41 -32 -46 -32 -45 35 -89 13 -9 21 -20 16 -25 -4 -4 -26 7 -50 24 -23 18 -61 44 -84 59 -23 16 -42 34 -43 41 0 17 7 15 46 -14 19 -15 36 -25 38 -23 1 2 16 21 31 43 l29 39 -39 33 c-24 20 -34 34 -25 34 14 0 58 -25 70 -40 3 -4 26 -21 52 -38 26 -18 51 -39 55 -46 5 -8 15 -11 26 -7 16 6 13 11 -22 36 -23 15 -38 31 -33 34 6 3 3 13 -6 21 -14 13 -15 12 -9 -3 3 -9 4 -17 1 -17 -13 0 -58 42 -60 56 -1 9 -6 19 -10 22 -4 4 -4 -1 -1 -10 9 -24 -6 -23 -28 2 -17 19 -17 20 -1 20 9 0 14 5 11 10 -8 13 95 129 114 130 8 0 11 3 8 7 -4 3 0 15 9 25 14 14 20 16 33 6 13 -10 14 -10 4 2 -17 19 -16 30 3 30 8 0 13 4 10 9 -4 5 7 4 24 -2 22 -8 30 -18 30 -35z m-265 -282 c-4 -6 -2 -10 4 -10 5 0 12 6 14 13 3 6 6 7 6 1 1 -6 -10 -21 -24 -34 l-25 -23 -25 23 -24 23 20 28 c20 28 20 28 40 8 11 -11 17 -24 14 -29z m-88 -80 c14 -11 21 -20 16 -20 -6 0 -16 7 -23 15 -11 13 -14 13 -27 -1 -19 -19 -30 -10 -13 11 16 19 17 19 47 -5z m13 -45 c7 -8 13 -26 13 -39 0 -20 7 -25 54 -36 70 -15 56 -32 -15 -18 -47 10 -54 9 -67 -8 -20 -26 -20 -25 26 -58 30 -21 38 -31 29 -40 -7 -7 -13 -7 -18 -1 -4 6 -40 34 -79 64 -40 29 -73 57 -73 63 0 6 14 28 31 49 33 42 75 52 99 24z m66 -7 c18 -12 32 -29 31 -38 -1 -13 -6 -14 -34 -5 -30 9 -47 35 -23 35 6 0 10 -5 10 -11 0 -5 5 -7 11 -4 6 5 4 12 -8 20 -10 7 -21 11 -25 9 -5 -3 -8 0 -8 5 0 16 10 14 46 -11z m114 -63 c0 -8 -4 -15 -10 -15 -5 0 -10 -5 -10 -11 0 -11 -29 -50 -82 -111 -16 -17 -28 -37 -28 -44 0 -25 -15 -15 -16 10 -1 14 4 27 12 30 25 10 14 41 -23 65 -31 20 -34 25 -20 33 11 6 25 4 42 -8 15 -10 25 -12 25 -5 0 21 19 11 23 -11 3 -22 4 -22 15 6 9 20 17 26 29 22 13 -5 14 -4 3 9 -7 8 -9 15 -4 16 5 0 0 5 -11 10 -17 8 -15 8 8 4 15 -3 27 -1 27 5 0 5 5 10 10 10 6 0 10 -7 10 -15z m-337 -27 c-5 -19 -3 -21 7 -11 10 10 20 7 44 -13 17 -13 44 -35 60 -48 l30 -23 -30 2 c-17 1 -45 9 -63 18 -18 9 -39 14 -45 11 -6 -3 -3 1 8 10 17 14 16 15 -18 9 -25 -4 -36 -2 -36 7 0 7 7 10 14 7 10 -4 13 -1 9 9 -3 8 0 21 7 29 17 20 19 19 13 -7z m49 -99 c51 -16 100 -33 108 -36 8 -3 18 -5 23 -5 4 1 7 -2 7 -8 0 -10 -34 -8 -81 5 -22 5 -30 1 -48 -24 l-22 -31 20 -29 c23 -31 26 -45 12 -39 -11 3 -131 167 -131 178 0 7 11 20 16 20 2 0 45 -14 96 -31z m-91 -59 c4 0 6 -6 3 -14 -3 -8 0 -17 7 -22 8 -5 10 -3 4 6 -5 9 -4 11 3 6 9 -5 9 -13 1 -28 -8 -15 -8 -19 1 -13 13 8 52 -24 44 -37 -3 -4 -2 -7 3 -6 4 2 8 0 8 -3 0 -4 8 -16 17 -26 14 -15 15 -22 6 -31 -6 -6 -9 -14 -6 -18 4 -3 12 4 18 16 10 18 8 24 -7 37 -16 13 -16 14 -1 9 10 -3 21 0 25 7 11 18 14 49 4 43 -4 -3 -13 6 -19 19 -7 14 -7 25 -3 25 5 0 12 -8 14 -17 3 -12 5 -9 6 8 1 35 9 40 39 26 19 -9 26 -9 29 0 5 14 33 6 33 -9 0 -6 -7 -7 -16 -4 -12 5 -15 2 -10 -10 7 -17 -40 -81 -56 -76 -5 1 -8 -4 -6 -11 4 -17 -97 -175 -126 -199 -12 -10 -17 -18 -13 -18 5 0 -1 -13 -12 -29 -12 -16 -21 -34 -21 -40 0 -6 -4 -11 -10 -11 -5 0 -10 -7 -10 -15 0 -20 -20 -19 -37 3 -11 14 -11 11 1 -13 14 -29 13 -33 -21 -88 -19 -31 -39 -57 -44 -57 -6 0 -7 -4 -4 -10 3 -5 -2 -10 -12 -11 -10 0 -13 -3 -6 -6 10 -3 9 -12 -4 -36 -15 -28 -18 -29 -21 -12 -2 11 -8 24 -12 29 -5 5 -7 -2 -4 -15 2 -13 -2 -8 -10 11 -14 36 -12 55 3 31 7 -10 16 -6 42 19 19 18 26 30 17 27 -12 -4 -25 4 -44 28 -14 19 -31 32 -37 28 -6 -4 -3 -9 9 -14 15 -6 15 -8 3 -8 -19 -1 -44 25 -32 31 4 3 2 3 -6 1 -18 -5 -33 18 -21 32 7 8 4 12 -6 12 -10 0 -14 -7 -11 -19 3 -10 1 -18 -4 -18 -5 0 -9 5 -9 10 0 6 -6 10 -14 10 -8 0 -17 4 -20 9 -4 5 2 7 13 4 12 -3 26 5 40 23 11 14 21 22 21 16 0 -5 17 -17 38 -25 20 -9 30 -17 22 -17 -8 -1 -4 -5 10 -10 70 -23 90 -28 85 -19 -4 5 -1 9 4 9 6 0 11 12 11 26 0 14 -4 23 -10 19 -5 -3 -10 -2 -10 4 0 6 -13 17 -30 26 -16 9 -30 13 -30 10 0 -3 -9 -1 -20 5 -11 6 -20 18 -20 26 0 9 5 12 12 8 7 -4 8 -3 4 4 -4 7 -14 12 -22 12 -8 0 -14 10 -14 25 0 14 -4 25 -10 25 -5 0 -10 -8 -10 -18 0 -10 -5 -23 -11 -29 -20 -20 -3 -37 75 -78 42 -21 76 -43 76 -47 0 -13 -8 -10 -92 34 -84 43 -80 43 -108 -2 -4 -8 -12 -12 -15 -8 -4 4 11 41 34 82 44 80 48 91 29 80 -7 -5 4 12 25 37 20 26 37 49 37 53 0 8 14 25 56 70 18 18 44 52 59 75 15 22 32 41 36 41 13 0 10 -12 -6 -34 -8 -11 -15 -23 -15 -26 0 -4 34 -31 75 -61 41 -29 75 -56 75 -59 0 -21 -20 -12 -88 41 l-77 58 -23 -27 c-12 -15 -30 -26 -40 -24 -13 3 -14 1 -5 -8 13 -15 67 -5 58 10 -3 6 1 10 10 10 24 0 75 -38 71 -53 -1 -7 -1 -9 1 -4 8 13 21 8 27 -10 4 -11 17 -19 36 -20 25 -2 33 3 40 23 12 30 5 45 -14 38 -9 -3 -17 3 -21 15 -3 12 -15 21 -26 21 -10 0 -18 3 -18 8 3 18 -2 32 -12 32 -5 0 -7 -5 -3 -11 4 -7 2 -10 -5 -8 -7 3 -12 8 -11 13 1 5 -4 12 -10 16 -7 4 -9 13 -6 19 4 6 11 9 16 6 15 -9 5 30 -13 50 -17 19 -17 20 0 27 10 3 14 7 10 7 -5 1 -5 6 -1 12 4 7 13 -2 22 -25 8 -20 18 -36 23 -36z m-364 -425 c0 -8 -4 -12 -9 -9 -5 3 -6 10 -3 15 9 13 12 11 12 -6z m-21 -37 c-20 -11 -21 -47 -2 -54 20 -8 8 -36 -13 -30 -19 7 -34 -2 -49 -29 -10 -17 -11 -18 -12 -3 0 10 9 32 21 50 18 29 20 30 15 8 -3 -14 -3 -20 0 -13 3 7 11 11 17 9 7 -1 9 -1 5 1 -11 7 -10 41 3 64 5 11 15 17 21 13 7 -4 5 -10 -6 -16z m137 -83 c31 -16 56 -33 54 -38 -4 -13 -16 -9 -107 40 -102 55 -93 49 -86 62 5 7 20 2 44 -12 20 -13 63 -36 95 -52z m-88 -5 c-3 -5 1 -10 10 -10 9 0 24 -8 33 -17 16 -15 14 -16 -21 -10 -22 3 -37 2 -37 -4 0 -6 5 -7 12 -3 7 4 8 3 4 -5 -4 -6 -12 -9 -17 -6 -5 4 -9 1 -9 -5 0 -6 -5 -8 -11 -4 -8 4 -7 9 2 15 20 12 8 18 -24 12 -35 -7 -56 -45 -37 -68 19 -23 43 -18 75 15 49 51 115 33 115 -31 0 -36 -42 -79 -76 -79 -34 0 -30 16 6 24 36 7 60 48 43 74 -17 28 -38 25 -82 -13 -24 -19 -47 -35 -51 -35 -5 0 -21 11 -37 24 -24 21 -26 27 -18 51 6 16 23 37 38 49 24 17 31 19 48 8 19 -12 20 -11 14 7 -5 15 -2 21 10 21 9 0 13 -4 10 -10z m-142 -92 c-2 -5 2 -20 11 -33 18 -28 16 -30 -41 -40 -24 -4 -43 -11 -43 -16 0 -6 5 -7 10 -4 20 12 10 -6 -17 -32 -16 -15 -22 -23 -14 -18 11 6 13 3 9 -13 -4 -12 -2 -22 3 -22 5 0 9 -7 9 -15 0 -8 12 -21 28 -30 26 -15 26 -16 2 -10 -19 5 -22 4 -10 -4 8 -6 26 -11 40 -11 15 0 20 3 13 8 -7 5 1 11 22 18 21 7 39 7 47 1 9 -6 8 -7 -4 -3 -10 3 -20 1 -23 -4 -4 -6 -3 -10 2 -11 4 0 18 -2 30 -5 42 -7 80 55 51 84 -20 20 -42 14 -73 -18 -35 -37 -88 -42 -105 -9 -13 23 -5 72 13 87 19 16 60 18 64 5 3 -8 -5 -13 -21 -13 -18 0 -30 -8 -38 -24 -26 -58 29 -76 77 -26 36 38 78 40 100 6 18 -28 12 -64 -15 -94 -23 -24 -100 -38 -112 -20 -6 10 -10 10 -18 -2 -6 -10 -10 -11 -10 -2 0 7 -13 12 -30 12 -17 0 -30 5 -31 13 0 6 -2 7 -5 2 -2 -6 -20 -10 -39 -9 -19 1 -33 -2 -30 -6 3 -4 -2 -11 -11 -14 -15 -6 -15 -8 1 -26 10 -11 15 -23 11 -28 -4 -4 -14 2 -22 12 -8 11 -14 15 -14 9 0 -14 29 -38 36 -30 4 3 24 -15 46 -41 21 -26 43 -46 48 -45 20 5 -2 -25 -26 -36 -39 -17 -52 -13 -69 19 -11 21 -12 30 -4 30 7 0 2 9 -11 20 -28 24 -29 24 -51 4 -14 -13 -16 -21 -8 -36 6 -11 8 -26 5 -34 -3 -9 -1 -12 4 -9 6 3 10 1 10 -4 0 -6 -9 -11 -19 -11 -16 0 -19 6 -16 33 4 32 4 32 -9 8 -8 -14 -12 -30 -10 -36 3 -6 -4 -20 -15 -31 -19 -21 -19 -21 37 -51 32 -17 56 -36 54 -42 -1 -7 2 -10 8 -6 5 3 26 -2 45 -11 28 -13 41 -14 60 -6 29 13 24 39 -9 52 -19 8 -18 9 7 9 16 1 26 5 23 9 -3 5 -19 7 -36 6 -43 -3 -29 8 15 12 50 4 91 26 87 47 -2 9 1 17 5 17 17 0 12 48 -8 68 -17 19 -18 25 -7 40 16 21 35 22 48 2 6 -9 10 -10 10 -3 0 6 9 15 21 18 15 5 20 13 17 29 -3 12 2 28 11 36 13 13 14 12 8 -3 -3 -9 -2 -17 3 -17 6 0 10 8 10 18 1 24 26 56 35 43 3 -6 1 -11 -5 -11 -6 0 -9 -4 -6 -9 7 -11 -30 -83 -49 -94 -9 -4 -13 -12 -10 -17 3 -5 1 -11 -5 -15 -6 -4 -8 -10 -5 -15 8 -13 -33 -100 -50 -106 -8 -4 -15 -10 -15 -16 0 -5 5 -6 10 -3 6 4 5 -6 -2 -22 -16 -37 -28 -51 -29 -32 -1 17 -17 -19 -18 -41 -1 -13 0 -13 9 0 19 29 10 1 -14 -44 -13 -25 -27 -42 -30 -39 -3 4 -6 -10 -6 -30 0 -49 -10 -73 -22 -55 -6 9 -7 6 -3 -9 4 -13 -1 -38 -11 -60 -10 -20 -19 -44 -20 -52 -1 -9 -12 -47 -24 -86 -12 -38 -24 -80 -27 -92 -3 -13 -9 -20 -15 -17 -5 3 -6 -5 -2 -20 4 -17 2 -26 -5 -26 -8 0 -10 -13 -6 -37 4 -29 3 -33 -4 -18 -8 16 -10 11 -10 -25 1 -25 -7 -88 -16 -140 -19 -114 -27 -337 -13 -364 6 -11 11 -43 12 -72 0 -28 4 -47 8 -40 5 7 8 3 8 -9 0 -11 6 -31 13 -45 46 -86 72 -128 93 -146 13 -12 20 -24 17 -28 -4 -4 0 -4 10 0 9 3 17 2 17 -3 0 -5 17 -17 38 -27 67 -33 137 -46 223 -41 96 4 90 -5 -31 -49 -41 -15 -87 -32 -102 -38 -15 -5 -31 -7 -37 -4 -5 3 -11 1 -13 -5 -2 -6 -52 -15 -111 -22 -99 -10 -151 -6 -242 17 -56 14 -205 135 -205 167 0 7 -7 20 -15 29 -8 9 -16 25 -18 36 -1 10 -6 24 -9 30 -4 6 -9 33 -12 59 -2 26 -8 51 -13 54 -4 3 -9 20 -9 36 -10 192 1 389 18 350 6 -15 7 -12 3 10 -7 39 -7 41 5 100 6 28 12 57 13 65 9 45 22 78 39 99 10 13 16 27 13 30 -4 3 -11 -1 -16 -9 -9 -12 -9 -11 -4 5 4 11 11 38 15 60 9 50 50 159 61 163 5 2 6 16 3 30 -4 19 -3 23 4 13 12 -16 17 -2 28 72 3 26 10 49 14 52 5 3 16 30 25 60 10 30 22 55 26 55 5 0 8 3 7 8 -6 19 35 112 49 112 12 0 13 3 5 13 -8 10 -5 19 11 38 13 13 21 31 20 39 -2 8 10 38 27 67 23 39 34 51 48 47 11 -4 13 -3 5 3 -7 5 -11 18 -9 29 4 21 124 255 135 264 3 3 13 19 21 35 23 49 32 58 41 43 4 -6 5 -16 2 -20z m91 2 c-6 -6 -10 -2 -11 12 -2 16 1 18 10 9 7 -7 8 -14 1 -21z m101 -20 c3 -5 1 -10 -4 -10 -6 0 -11 5 -11 10 0 6 2 10 4 10 3 0 8 -4 11 -10z m-17 -38 c-6 -7 -18 -11 -27 -10 -10 2 -17 -5 -19 -18 -2 -16 -8 -20 -22 -17 -18 5 -80 -25 -80 -38 0 -4 -9 -9 -19 -12 -14 -3 -18 -1 -14 9 3 8 11 14 18 14 6 0 19 8 28 18 13 15 14 21 4 31 -10 11 -9 12 7 4 21 -12 47 -1 85 34 18 17 26 19 36 10 9 -8 10 -16 3 -25z m102 -5 c0 -6 -3 -7 -7 -4 -7 8 -35 -46 -42 -79 0 -4 -8 -1 -16 6 -12 10 -11 15 10 38 14 15 25 35 25 44 0 11 5 15 15 12 8 -4 15 -11 15 -17z m-70 -82 c6 -3 10 -13 10 -21 0 -8 -4 -12 -10 -9 -6 3 -7 -1 -4 -9 3 -9 1 -16 -4 -16 -6 0 -12 -6 -15 -12 -2 -7 -3 -4 -1 7 1 11 -4 29 -12 39 -8 11 -14 23 -14 27 0 8 34 4 50 -6z m-99 -59 c-7 -8 -19 -12 -27 -9 -16 6 -19 33 -4 33 6 0 10 -8 10 -17 0 -15 2 -16 9 -3 6 8 7 19 4 25 -3 5 0 5 7 -2 10 -10 11 -15 1 -27z m-146 -85 c41 -8 71 -13 133 -21 2 0 0 -4 -3 -10 -3 -5 -25 -7 -48 -4 -40 5 -43 4 -59 -29 -16 -34 -16 -35 10 -60 14 -15 23 -30 19 -34 -4 -4 -26 13 -48 37 -22 25 -56 61 -76 82 -37 38 -37 61 0 54 12 -3 45 -9 72 -15z m-133 -153 c10 -36 20 -53 31 -52 8 1 46 5 84 9 53 5 65 4 56 -5 -6 -7 -41 -15 -77 -17 -48 -4 -66 -10 -66 -20 0 -19 45 -63 65 -63 8 0 15 -4 15 -10 0 -17 -18 -11 -111 37 -60 31 -87 49 -80 56 7 7 23 1 50 -16 22 -15 43 -27 45 -27 3 0 -6 30 -20 67 -26 73 -29 93 -15 93 5 0 15 -24 23 -52z m137 -19 c-22 -14 -33 -10 -19 6 7 8 17 12 22 9 6 -4 5 -10 -3 -15z"/> <path d="M3712 5360 c7 -10 14 -18 15 -16 6 6 -9 36 -18 36 -5 0 -4 -9 3 -20z"/> <path d="M2410 5216 c0 -3 10 -25 23 -49 l22 -45 24 19 c13 11 22 21 20 23 -13 11 -89 55 -89 52z m60 -50 c0 -3 -4 -8 -10 -11 -5 -3 -10 -1 -10 4 0 6 5 11 10 11 6 0 10 -2 10 -4z"/> <path d="M3890 5020 c0 -5 5 -10 10 -10 6 0 10 5 10 10 0 6 -4 10 -10 10 -5 0 -10 -4 -10 -10z"/> <path d="M2340 4970 c0 -6 7 -10 15 -10 8 0 15 2 15 4 0 2 -7 6 -15 10 -8 3 -15 1 -15 -4z"/> <path d="M2083 4920 c-25 -22 -29 -31 -19 -39 7 -6 16 -8 20 -4 4 4 4 0 1 -9 -11 -29 16 -31 46 -2 34 32 37 59 10 74 -25 13 -21 14 -58 -20z m60 -17 c-6 -15 -23 -17 -23 -3 0 6 -5 10 -10 10 -7 0 -7 -6 0 -19 6 -12 6 -22 1 -26 -5 -3 -12 4 -16 15 -4 11 -12 18 -18 14 -7 -3 -3 1 7 10 23 19 66 18 59 -1z"/> <path d="M1940 4787 c0 -2 10 -24 23 -49 l22 -47 24 20 c13 11 22 21 20 23 -11 9 -89 56 -89 53z"/> <path d="M2080 4661 c0 -6 4 -13 10 -16 6 -3 7 1 4 9 -7 18 -14 21 -14 7z"/> <path d="M1781 4637 c-13 -21 -12 -21 5 -5 10 10 16 20 13 22 -3 3 -11 -5 -18 -17z"/> <path d="M1941 4594 c0 -11 3 -14 6 -6 3 7 2 16 -1 19 -3 4 -6 -2 -5 -13z"/> <path d="M1815 4340 c-3 -5 -1 -10 4 -10 6 0 11 5 11 10 0 6 -2 10 -4 10 -3 0 -8 -4 -11 -10z"/> <path d="M1760 4320 c0 -5 5 -10 11 -10 5 0 7 5 4 10 -3 6 -8 10 -11 10 -2 0 -4 -4 -4 -10z"/> <path d="M1505 4278 l-26 -31 28 -23 c15 -13 30 -23 33 -24 15 -1 41 63 36 86 -9 34 -39 31 -71 -8z m51 -30 c-12 -20 -16 -21 -40 -12 -24 9 0 34 29 32 19 -2 21 -5 11 -20z"/> <path d="M1604 4191 c7 -11 46 -35 46 -28 0 3 -12 12 -26 22 -15 9 -23 12 -20 6z"/> <path d="M1520 4140 c0 -5 5 -10 10 -10 6 0 10 5 10 10 0 6 -4 10 -10 10 -5 0 -10 -4 -10 -10z"/> <path d="M1421 4087 c34 -46 34 -46 52 -25 24 28 22 33 -20 47 -21 7 -44 15 -52 18 -7 3 2 -15 20 -40z"/> <path d="M1420 3971 c0 -6 4 -13 10 -16 6 -3 7 1 4 9 -7 18 -14 21 -14 7z"/> <path d="M1350 3690 c0 -5 5 -10 10 -10 6 0 10 5 10 10 0 6 -4 10 -10 10 -5 0 -10 -4 -10 -10z"/> <path d="M888 3403 c-3 -4 3 -16 14 -25 21 -21 24 -11 4 15 -8 10 -16 15 -18 10z"/> <path d="M866 3365 c-3 -8 -1 -15 4 -15 6 0 10 7 10 15 0 8 -2 15 -4 15 -2 0 -6 -7 -10 -15z"/> <path d="M950 3160 c0 -5 5 -10 10 -10 6 0 10 5 10 10 0 6 -4 10 -10 10 -5 0 -10 -4 -10 -10z"/> <path d="M930 3049 c0 -5 5 -7 10 -4 6 3 10 8 10 11 0 2 -4 4 -10 4 -5 0 -10 -5 -10 -11z"/> <path d="M972 2980 c-14 -23 -15 -30 -3 -30 8 0 24 41 18 47 -2 1 -8 -7 -15 -17z"/> <path d="M906 2882 c-3 -4 4 -9 15 -9 23 -2 25 3 4 10 -8 4 -16 3 -19 -1z"/> <path d="M705 2829 c-4 -6 -5 -12 -2 -15 2 -3 7 2 10 11 7 17 1 20 -8 4z"/> <path d="M761 2504 c0 -11 3 -14 6 -6 3 7 2 16 -1 19 -3 4 -6 -2 -5 -13z"/> <path d="M780 2498 c0 -19 2 -20 10 -8 13 19 13 30 0 30 -5 0 -10 -10 -10 -22z"/> <path d="M470 2470 c0 -5 5 -10 11 -10 5 0 7 5 4 10 -3 6 -8 10 -11 10 -2 0 -4 -4 -4 -10z"/> <path d="M766 2445 c-3 -9 -6 -24 -5 -33 0 -9 5 -4 10 12 9 32 6 48 -5 21z"/> <path d="M696 2165 c-9 -26 -7 -32 5 -12 6 10 9 21 6 23 -2 3 -7 -2 -11 -11z"/> <path d="M336 1977 c3 -10 9 -15 12 -12 3 3 0 11 -7 18 -10 9 -11 8 -5 -6z"/> <path d="M321 1894 c0 -11 3 -14 6 -6 3 7 2 16 -1 19 -3 4 -6 -2 -5 -13z"/> <path d="M700 1500 c0 -5 5 -10 10 -10 6 0 10 5 10 10 0 6 -4 10 -10 10 -5 0 -10 -4 -10 -10z"/> <path d="M1120 1260 c-8 -5 -10 -10 -5 -10 6 0 17 5 25 10 8 5 11 10 5 10 -5 0 -17 -5 -25 -10z"/> <path d="M828 3091 c24 -24 45 -41 46 -39 6 6 26 47 26 51 0 3 -17 8 -37 11 -21 4 -47 10 -58 13 -13 4 -5 -9 23 -36z"/> <path d="M4408 5232 c-32 -31 -78 -75 -103 -97 -103 -90 -145 -132 -145 -146 0 -9 8 -5 24 11 13 14 32 32 43 41 11 9 27 27 36 39 9 13 19 21 22 18 5 -5 -70 -92 -254 -294 -134 -147 -197 -219 -222 -253 -15 -21 -38 -46 -51 -57 -20 -16 -133 -140 -513 -559 -45 -49 -130 -144 -191 -210 -60 -67 -214 -237 -343 -378 -128 -142 -238 -263 -245 -270 -6 -7 -51 -57 -101 -112 -49 -55 -108 -120 -130 -145 -23 -25 -93 -101 -156 -170 -63 -69 -119 -124 -126 -124 -6 1 -9 -4 -7 -10 5 -14 -39 -59 -61 -62 -18 -3 -20 17 -3 34 9 9 9 17 0 34 -9 17 -13 197 -15 701 l-3 678 207 -2 c114 -1 212 1 218 5 7 5 11 -1 11 -13 0 -12 5 -21 10 -21 6 0 10 -91 10 -252 0 -167 4 -248 10 -238 6 9 10 125 10 278 l0 262 -245 0 -245 0 -2 -771 c-2 -424 -1 -772 1 -775 2 -2 22 18 45 44 40 46 224 248 315 347 26 28 89 97 141 155 52 58 113 125 136 150 23 25 243 268 489 540 246 272 468 518 494 545 25 28 87 95 136 150 50 55 102 113 117 129 l27 30 -34 -110 c-69 -227 -123 -364 -221 -573 -56 -117 -53 -143 3 -30 121 243 208 441 268 609 75 210 69 199 203 347 70 76 156 172 192 212 36 41 76 86 90 101 14 15 61 67 105 115 44 49 90 98 103 109 21 19 30 46 15 46 -5 -1 -34 -26 -65 -58z m-627 -766 c-14 -36 -22 -33 -9 5 6 16 12 28 14 26 3 -2 0 -16 -5 -31z m-1904 -1968 c-3 -8 -6 -5 -6 6 -1 11 2 17 5 13 3 -3 4 -12 1 -19z m3 -68 c-8 -5 -17 -7 -19 -4 -3 3 1 9 9 14 8 5 17 7 19 4 3 -3 -1 -9 -9 -14z"/> <path d="M4120 4972 c-9 -9 -34 -33 -56 -53 -23 -21 -40 -44 -40 -57 0 -29 13 -28 22 0 7 24 34 49 45 42 4 -2 15 6 25 18 11 12 13 18 7 14 -7 -4 -13 -3 -13 3 0 5 9 13 20 16 11 3 20 13 20 21 0 18 -11 17 -30 -4z m-10 -46 c0 -3 -4 -8 -10 -11 -5 -3 -10 -1 -10 4 0 6 5 11 10 11 6 0 10 -2 10 -4z"/> <path d="M3955 4815 c-71 -78 -69 -89 4 -20 33 33 61 63 61 67 0 18 -19 5 -65 -47z"/> <path d="M3970 4785 c-7 -9 -11 -17 -9 -20 3 -2 10 5 17 15 14 24 10 26 -8 5z"/> <path d="M3911 4713 c-10 -26 -10 -27 4 -9 8 11 15 23 15 28 0 15 -7 8 -19 -19z"/> <path d="M3791 4314 c0 -11 3 -14 6 -6 3 7 2 16 -1 19 -3 4 -6 -2 -5 -13z"/> <path d="M3422 4175 c-7 -8 -9 -15 -4 -15 5 0 15 7 22 15 16 19 -1 19 -18 0z"/> <path d="M3260 4051 c0 -5 5 -13 10 -16 6 -3 10 -2 10 4 0 5 -4 13 -10 16 -5 3 -10 2 -10 -4z"/> <path d="M3289 4023 c-13 -16 -12 -17 4 -4 9 7 17 15 17 17 0 8 -8 3 -21 -13z"/> <path d="M3367 3999 c7 -7 15 -10 18 -7 3 3 -2 9 -12 12 -14 6 -15 5 -6 -5z"/> <path d="M3193 3915 c0 -8 4 -12 9 -9 5 3 6 10 3 15 -9 13 -12 11 -12 -6z"/> <path d="M1914 3745 c0 -55 1 -76 3 -47 2 29 2 74 0 100 -2 26 -3 2 -3 -53z"/> <path d="M2303 3750 c0 -47 2 -66 4 -42 2 23 2 61 0 85 -2 23 -4 4 -4 -43z"/> <path d="M2302 3640 c0 -14 2 -19 5 -12 2 6 2 18 0 25 -3 6 -5 1 -5 -13z"/> <path d="M1913 3605 c0 -22 2 -30 4 -17 2 12 2 30 0 40 -3 9 -5 -1 -4 -23z"/> <path d="M1811 3614 c0 -11 3 -14 6 -6 3 7 2 16 -1 19 -3 4 -6 -2 -5 -13z"/> <path d="M2302 3475 c0 -16 2 -22 5 -12 2 9 2 23 0 30 -3 6 -5 -1 -5 -18z"/> <path d="M2890 3449 c0 -5 5 -7 10 -4 6 3 10 8 10 11 0 2 -4 4 -10 4 -5 0 -10 -5 -10 -11z"/> <path d="M2723 3412 c0 -12 5 -22 9 -22 11 0 10 12 -2 30 -7 12 -9 10 -7 -8z"/> <path d="M2755 3310 c-3 -5 -1 -10 4 -10 6 0 11 5 11 10 0 6 -2 10 -4 10 -3 0 -8 -4 -11 -10z"/> <path d="M1912 3155 c0 -16 2 -22 5 -12 2 9 2 23 0 30 -3 6 -5 -1 -5 -18z"/> <path d="M2441 3124 c0 -11 3 -14 6 -6 3 7 2 16 -1 19 -3 4 -6 -2 -5 -13z"/> <path d="M2366 3008 c3 -5 10 -6 15 -3 13 9 11 12 -6 12 -8 0 -12 -4 -9 -9z"/> <path d="M2296 2938 c3 -5 10 -6 15 -3 13 9 11 12 -6 12 -8 0 -12 -4 -9 -9z"/> <path d="M1905 2920 c3 -5 8 -10 11 -10 2 0 4 5 4 10 0 6 -5 10 -11 10 -5 0 -7 -4 -4 -10z"/> <path d="M2157 2799 c7 -7 15 -10 18 -7 3 3 -2 9 -12 12 -14 6 -15 5 -6 -5z"/> <path d="M2084 2729 c-3 -6 -1 -16 5 -22 9 -9 10 -7 5 7 -6 16 -4 18 10 13 10 -4 15 -3 11 3 -8 13 -22 13 -31 -1z"/> <path d="M2688 2721 c-1 -5 -69 -77 -150 -161 -82 -84 -148 -155 -148 -158 0 -4 17 -25 38 -47 21 -22 67 -71 102 -110 70 -76 298 -321 425 -454 44 -47 89 -95 100 -107 11 -12 87 -92 170 -179 82 -86 159 -168 170 -181 l20 -23 319 -1 c175 0 323 -3 327 -6 5 -3 9 1 9 8 0 14 -51 68 -338 363 -96 99 -236 243 -311 320 -75 77 -262 270 -416 429 -154 158 -284 294 -288 302 -9 16 -24 18 -29 5z m62 -76 c25 -25 48 -45 52 -45 5 0 8 -5 8 -10 0 -6 11 -21 25 -34 13 -13 22 -26 18 -29 -3 -4 -1 -7 5 -7 17 0 52 -32 46 -42 -3 -5 -2 -7 3 -6 14 5 74 -62 67 -74 -4 -6 -3 -8 3 -5 13 8 159 -144 155 -162 -2 -7 1 -10 8 -6 15 10 70 -43 63 -61 -4 -10 0 -12 13 -7 14 5 16 3 11 -11 -4 -9 -3 -15 2 -11 5 3 54 -41 108 -97 128 -132 210 -217 306 -314 43 -44 75 -83 71 -87 -4 -4 -2 -7 4 -7 17 0 73 -51 66 -61 -3 -5 -1 -9 4 -9 8 0 135 -125 220 -216 12 -13 -25 -14 -284 -14 l-298 1 -45 48 c-25 26 -79 83 -119 127 -40 43 -112 118 -158 166 -54 54 -80 88 -72 91 8 3 6 6 -5 6 -25 1 -187 167 -187 192 0 5 -4 8 -9 5 -4 -3 -29 18 -54 47 -25 29 -49 56 -53 60 -5 4 -2 13 6 18 12 8 10 9 -6 4 -17 -4 -36 11 -98 76 -41 45 -73 87 -69 93 3 6 2 7 -2 3 -10 -8 -135 111 -135 128 0 14 224 245 238 245 7 0 12 6 12 13 0 13 19 37 30 37 3 -1 25 -21 50 -45z"/> <path d="M2455 2410 c-3 -5 -1 -10 4 -10 6 0 11 5 11 10 0 6 -2 10 -4 10 -3 0 -8 -4 -11 -10z"/> <path d="M2466 2367 c3 -10 9 -15 12 -12 3 3 0 11 -7 18 -10 9 -11 8 -5 -6z"/> <path d="M2527 2317 c-3 -7 3 -13 14 -13 13 0 15 3 7 13 -6 7 -12 13 -13 13 -2 0 -5 -6 -8 -13z"/> <path d="M2657 2183 c-4 -3 -7 -11 -7 -17 0 -6 5 -5 12 2 6 6 9 14 7 17 -3 3 -9 2 -12 -2z"/> <path d="M3260 2086 c0 -2 8 -10 18 -17 15 -13 16 -12 3 4 -13 16 -21 21 -21 13z"/> <path d="M3330 2010 c0 -5 10 -15 23 -21 22 -12 22 -12 3 10 -21 23 -26 26 -26 11z"/> <path d="M3682 1644 c-7 -8 -8 -14 -3 -14 10 0 25 19 20 25 -2 1 -10 -3 -17 -11z"/> <path d="M1911 2694 c0 -11 3 -14 6 -6 3 7 2 16 -1 19 -3 4 -6 -2 -5 -13z"/> <path d="M2016 2648 c3 -4 11 -5 19 -1 21 7 19 12 -4 10 -11 0 -18 -5 -15 -9z"/> <path d="M1811 2484 c0 -11 3 -14 6 -6 3 7 2 16 -1 19 -3 4 -6 -2 -5 -13z"/> <path d="M2280 2219 c-36 -40 -72 -81 -80 -89 -25 -26 -204 -222 -220 -240 -24 -27 -179 -198 -235 -258 -27 -30 -54 -59 -60 -66 -5 -6 -58 -63 -116 -126 -58 -63 -126 -137 -150 -165 -24 -27 -73 -81 -109 -120 -36 -39 -110 -120 -165 -181 -55 -60 -125 -136 -156 -169 -30 -33 -73 -80 -95 -104 -21 -25 -66 -74 -100 -110 -33 -36 -83 -91 -110 -121 -78 -87 -152 -168 -244 -265 -155 -164 -162 -173 -155 -184 4 -8 14 -2 28 16 25 34 224 231 502 498 115 110 236 227 270 260 71 68 156 149 405 385 96 91 219 208 272 261 54 53 98 93 99 90 0 -3 0 -53 -1 -111 l-1 -106 226 4 c165 2 231 0 241 -9 8 -7 17 -10 19 -7 3 3 4 227 3 498 l-3 492 -65 -73z m49 -65 c1 -41 -3 -72 -11 -82 -7 -9 -8 -13 -2 -9 13 8 18 -514 5 -605 -4 -31 -4 -55 1 -52 4 3 8 -2 8 -10 0 -8 -5 -18 -10 -21 -8 -5 -8 -11 0 -20 8 -10 -25 -13 -174 -14 -102 -1 -200 1 -219 4 -32 6 -33 9 -35 53 -3 85 -14 141 -27 152 -15 12 -39 -8 -187 -153 -33 -32 -64 -54 -70 -51 -6 4 -8 3 -5 -3 6 -10 -58 -77 -187 -194 -26 -24 -57 -54 -69 -66 -11 -12 -24 -20 -29 -17 -5 3 -7 1 -6 -3 4 -13 -82 -94 -92 -88 -4 3 -7 -3 -6 -13 0 -9 -5 -16 -11 -14 -7 1 -13 -2 -13 -7 0 -6 -21 -29 -47 -53 -26 -24 -59 -56 -74 -72 -16 -17 -32 -25 -39 -21 -8 5 -1 17 22 38 18 17 37 30 42 29 5 -2 5 5 2 15 -4 9 -4 14 0 11 4 -4 20 11 36 33 16 22 33 37 38 34 6 -4 7 1 3 11 -4 12 -3 15 5 10 7 -4 12 -3 12 2 0 18 81 101 94 96 7 -3 16 2 20 12 5 14 4 15 -9 4 -32 -27 -13 4 32 50 26 27 52 46 58 43 5 -4 7 -2 2 2 -9 11 22 45 42 45 12 0 13 2 3 8 -9 6 -5 15 15 32 16 14 31 24 35 22 5 -1 7 4 5 11 -1 6 4 11 11 9 8 -1 11 2 7 8 -8 13 14 42 26 34 5 -3 8 -1 7 4 -4 11 103 128 114 125 4 -2 7 0 5 5 -1 4 8 20 21 36 12 16 22 22 22 15 0 -11 2 -11 9 1 6 8 7 18 4 24 -4 5 1 7 11 3 11 -4 15 -3 10 4 -3 6 3 19 15 30 12 11 21 25 21 30 0 6 7 8 16 5 8 -3 13 -2 10 3 -5 7 56 78 167 195 22 23 36 33 33 23 -3 -11 -2 -16 5 -12 5 4 7 15 4 24 -3 12 3 22 19 31 14 7 24 16 23 20 -1 4 33 44 76 90 42 45 77 87 77 91 0 5 6 9 13 9 7 0 17 10 22 23 6 12 18 21 28 21 10 -1 19 7 23 22 3 13 10 21 15 18 5 -3 9 2 9 10 0 9 4 16 9 16 4 0 9 -30 10 -66z m-1299 -1370 c0 -6 -80 -85 -161 -159 l-44 -40 40 44 c22 25 52 57 67 72 15 14 25 29 22 32 -3 3 4 8 15 12 11 3 23 15 26 26 6 17 35 28 35 13z m-210 -208 c0 -2 -8 -10 -17 -17 -16 -13 -17 -12 -4 4 13 16 21 21 21 13z"/> <path d="M2202 2078 c-7 -9 -6 -17 3 -25 10 -9 13 -7 11 13 -1 28 -1 28 -14 12z"/> <path d="M1560 1380 c-8 -5 -12 -12 -9 -15 4 -3 12 1 19 10 14 17 11 19 -10 5z"/> <path d="M1360 1159 c0 -5 5 -7 10 -4 6 3 10 8 10 11 0 2 -4 4 -10 4 -5 0 -10 -5 -10 -11z"/> <path d="M1236 1023 c-6 -14 -5 -15 5 -6 7 7 10 15 7 18 -3 3 -9 -2 -12 -12z"/> <path d="M721 1754 c0 -11 3 -14 6 -6 3 7 2 16 -1 19 -3 4 -6 -2 -5 -13z"/> <path d="M2771 1144 c-29 -12 -32 -17 -29 -51 3 -36 6 -39 56 -57 41 -15 52 -23 52 -40 0 -46 -56 -63 -87 -26 -19 22 -33 26 -33 10 0 -19 40 -50 65 -50 13 0 36 5 50 12 23 10 26 17 23 52 -3 38 -5 40 -53 56 -45 15 -50 20 -50 46 0 25 4 29 32 32 24 2 34 -2 43 -17 12 -24 30 -28 30 -8 0 15 -26 41 -51 49 -8 3 -30 0 -48 -8z"/> <path d="M1870 1039 c0 -71 4 -108 10 -104 6 3 10 23 10 44 0 24 7 44 18 54 16 15 20 12 56 -44 21 -32 42 -59 47 -59 16 0 10 13 -32 73 l-41 59 38 39 c21 21 34 42 30 46 -5 5 -32 -18 -61 -49 -28 -32 -54 -58 -57 -58 -2 0 -3 25 0 55 3 37 1 55 -7 55 -7 0 -11 -35 -11 -111z"/> <path d="M2330 1048 c-18 -57 -32 -104 -31 -105 5 -11 18 2 27 29 9 27 15 31 48 32 39 1 43 -2 60 -57 3 -10 10 -16 15 -13 13 8 -58 216 -73 216 -7 0 -27 -44 -46 -102z m67 19 c7 -23 11 -43 9 -45 -2 -2 -17 -2 -33 0 l-29 3 14 48 c15 55 21 54 39 -6z"/> <path d="M3175 1126 c-25 -38 -4 -75 54 -92 42 -11 60 -37 45 -61 -16 -26 -59 -28 -83 -4 -25 25 -31 26 -31 7 0 -7 11 -21 25 -30 53 -35 118 -7 113 47 -3 28 -10 35 -56 57 -46 21 -53 28 -50 50 4 34 61 42 78 11 12 -24 30 -28 30 -7 0 22 -40 46 -77 46 -23 0 -37 -7 -48 -24z"/> <path d="M3600 1046 c0 -91 7 -126 21 -112 8 9 -3 216 -12 216 -5 0 -9 -46 -9 -104z"/> <path d="M3910 1140 c0 -5 16 -10 35 -10 l34 0 3 -97 c4 -127 23 -127 23 0 l0 92 38 3 c71 6 37 22 -48 22 -50 0 -85 -4 -85 -10z"/> <path d="M1210 1099 c0 -5 5 -7 10 -4 6 3 10 8 10 11 0 2 -4 4 -10 4 -5 0 -10 -5 -10 -11z"/> <path d="M3316 1067 c3 -10 9 -15 12 -12 3 3 0 11 -7 18 -10 9 -11 8 -5 -6z"/> <path d="M1811 1054 c0 -11 3 -14 6 -6 3 7 2 16 -1 19 -3 4 -6 -2 -5 -13z"/> <path d="M835 719 c-11 -16 -1 -19 13 -3 7 8 8 14 3 14 -5 0 -13 -5 -16 -11z"/> <path d="M770 624 c0 -8 5 -12 10 -9 6 4 8 11 5 16 -9 14 -15 11 -15 -7z"/> <path d="M695 579 c-11 -16 -1 -19 13 -3 7 8 8 14 3 14 -5 0 -13 -5 -16 -11z"/> <path d="M635 510 c-3 -6 1 -7 9 -4 18 7 21 14 7 14 -6 0 -13 -4 -16 -10z"/> </g> </svg> 